<?xml version="1.0" encoding="iso-8859-1"?>
<!-- Generator: Adobe Illustrator 19.0.0, SVG Export Plug-In . SVG Version: 6.00 Build 0)  -->
<!-- License: CC0. Made by SVG Repo: https://www.svgrepo.com/svg/67628/email -->
<svg version="1.1" id="Layer_1" xmlns="http://www.w3.org/2000/svg" xmlns:xlink="http://www.w3.org/1999/xlink" x="0px" y="0px"
	 viewBox="0 0 512 512" style="enable-background:new 0 0 512 512;" xml:space="preserve">
<g>
	<path style="fill:#211E48;" d="M403.816,281.134c-59.652,0-108.184-48.532-108.184-108.184S344.164,64.767,403.816,64.767
		S512,113.298,512,172.95S463.468,281.134,403.816,281.134z M403.816,93.236c-43.955,0-79.714,35.759-79.714,79.714
		s35.759,79.714,79.714,79.714s79.714-35.759,79.714-79.714S447.772,93.236,403.816,93.236z"/>
	<path style="fill:#211E48;" d="M381.765,447.233H37.869C16.988,447.233,0,430.246,0,409.366V163.397
		c0-20.881,16.988-37.869,37.869-37.869h278.048c7.86,0,14.235,6.374,14.235,14.235s-6.374,14.235-14.235,14.235H37.869
		c-5.183,0-9.399,4.216-9.399,9.399v245.969c0,5.181,4.216,9.398,9.399,9.398h343.898c5.181,0,9.398-4.216,9.398-9.398v-81.64
		c0-7.86,6.374-14.235,14.235-14.235c7.86,0,14.235,6.374,14.235,14.235v81.64C419.632,430.246,402.645,447.233,381.765,447.233z"/>
</g>
<path style="fill:#B0DACC;" d="M309.867,172.95c0-10.268,1.67-20.141,4.715-29.389H40.629c-19.778,0-28.257,25.109-12.531,37.1
	l169.188,129.002c7.401,5.643,17.66,5.643,25.062,0l105.972-80.802C316.728,213.237,309.867,193.897,309.867,172.95z"/>
<g>
	<path style="fill:#211E48;" d="M209.815,328.13c-7.601,0-15.117-2.538-21.161-7.147L19.467,191.979
		c-12.101-9.226-16.774-24.504-11.904-38.922c4.87-14.417,17.849-23.734,33.066-23.734h273.953c4.566,0,8.855,2.191,11.533,5.89
		c2.676,3.7,3.416,8.457,1.989,12.794c-2.655,8.068-4.003,16.46-4.003,24.941c0,17.23,5.412,33.63,15.65,47.43
		c4.641,6.256,3.392,15.079-2.801,19.801l-105.972,80.802C224.934,325.591,217.417,328.13,209.815,328.13z M40.629,157.795
		c-4.017,0-5.543,2.74-6.094,4.373c-0.551,1.633-0.999,4.737,2.195,7.173l169.187,129.002c1.428,1.09,2.908,1.318,3.899,1.318
		s2.471-0.228,3.899-1.318l95.521-72.832c-8.935-15.998-13.604-33.926-13.604-52.562c0-5.085,0.356-10.145,1.065-15.154
		L40.629,157.795L40.629,157.795z"/>
	<path style="fill:#211E48;" d="M394.218,148.03l-4.128,2.562c-1.28,0.854-2.562,1.139-3.559,1.139
		c-4.128,0-6.975-4.413-6.975-8.826c0-2.989,1.281-5.838,4.128-7.544l18.791-11.389c1.139-0.712,2.562-0.996,4.127-0.996
		c4.555,0,9.822,2.705,9.822,6.975v90.538c0,4.557-5.55,6.834-11.103,6.834c-5.553,0-11.104-2.278-11.104-6.834V148.03H394.218z"/>
</g>
</svg>